#!OML:ASF F:\VICON\USERDATA\INSTALL\rory3\rory3.ASF
:FULLY-SPECIFIED
:DEGREES
135
root -10.7454 15.8175 7.09283 -176.914 52.3983 -174.53
lowerback 9.41272 -1.04258 1.85553
upperback -0.766902 -1.08706 1.12363
thorax -6.1036 -0.566519 0.288314
lowerneck -12.6154 -7.47379 -12.6726
upperneck 30.8221 -8.30977 6.0978
head 13.3171 -3.95952 3.3636
rclavicle -8.31518e-014 5.91384e-015
rhumerus -37.3327 -7.30497 -80.416
rradius 25.341
rwrist 14.1784
rhand -17.7333 13.8543
rfingers 7.12502
rthumb 8.52767 -15.9535
lclavicle -8.31518e-014 5.91384e-015
lhumerus -35.6368 13.5245 79.713
lradius 22.0429
lwrist -8.01522
lhand -13.1283 12.5447
lfingers 7.12502
lthumb 12.9695 42.1216
rfemur -16.1765 4.43932 27.7749
rtibia 28.2969
rfoot -11.846 -17.9927
rtoes 3.49092
lfemur 1.24307 -0.996457 -17.0614
ltibia 51.8157
lfoot 20.2994 6.76144
ltoes -0.663025
136
root -10.6585 15.8143 7.05331 -175.969 52.4841 -173.266
lowerback 9.56596 -1.02269 2.67987
upperback -0.775938 -0.942429 1.29809
thorax -6.21099 -0.517258 -0.0107601
lowerneck -12.5852 -7.4679 -12.591
upperneck 30.7909 -8.32351 6.08966
head 13.293 -3.95727 3.3446
rclavicle 2.85108e-014 -1.75924e-014
rhumerus -37.1995 -6.60498 -80.748
rradius 25.9135
rwrist 13.4769
rhand -17.8098 13.904
rfingers 7.12502
rthumb 8.4539 -15.9068
lclavicle 2.85108e-014 -1.75924e-014
lhumerus -35.4682 13.4491 79.7617
lradius 22.2526
lwrist -7.81278
lhand -13.111 12.6079
lfingers 7.12502
lthumb 12.9862 42.1838
rfemur -15.5665 4.17223 28.7421
rtibia 28.015
rfoot -12.0739 -17.6209
rtoes 3.38283
lfemur -0.216998 -0.790952 -16.1501
ltibia 53.9755
lfoot 22.2525 7.81183
ltoes 0.264882
137
root -10.5688 15.8098 7.01373 -175.436 52.6032 -172.531
lowerback 9.65543 -0.972027 3.08281
upperback -0.773709 -0.810161 1.4385
thorax -6.26144 -0.461426 -0.108416
lowerneck -12.3902 -7.47227 -12.5103
upperneck 30.5354 -8.33745 5.95665
head 13.1328 -3.97751 3.27405
rclavicle -1.22998e-014 2.22639e-014
rhumerus -36.9313 -6.19254 -80.8932
rradius 26.2109
rwrist 13.083
rhand -17.5044 14.5192
rfingers 7.12502
rthumb 8.74863 -15.2795
lclavicle -1.22998e-014 2.22639e-014
lhumerus -35.3098 13.1914 79.9789
lradius 22.5482
lwrist -7.30558
lhand -13.1521 12.6643
lfingers 7.12502
lthumb 12.9465 42.2426
rfemur -14.993 4.03166 29.3489
rtibia 27.7989
rfoot -12.4498 -17.2887
rtoes 3.57648
lfemur -1.62453 -0.642855 -15.6253
ltibia 55.9857
lfoot 23.6982 9.17962
ltoes 1.20283
138
root -10.4791 15.805 6.97917 -175.057 52.7287 -172.007
lowerback 9.73327 -0.888993 3.3032
upperback -0.778408 -0.659186 1.54679
thorax -6.30873 -0.391658 -0.140278
lowerneck -12.0881 -7.5024 -12.4897
upperneck 30.2538 -8.39784 5.87119
head 12.9519 -4.01995 3.22795
rclavicle -1.49217e-013 -2.21645e-014
rhumerus -36.5744 -6.05387 -80.9635
rradius 26.2754
rwrist 13.004
rhand -17.4185 14.5295
rfingers 7.12502
rthumb 8.83155 -15.2657
lclavicle -1.49217e-013 -2.21645e-014
lhumerus -35.154 13.0055 80.1697
lradius 22.8325
lwrist -6.94584
lhand -13.2213 12.63
lfingers 7.12502
lthumb 12.8799 42.2125
rfemur -14.4972 4.08381 29.8418
rtibia 27.6648
rfoot -12.6648 -17.2471
rtoes 3.12047
lfemur -3.07233 -0.501468 -15.2216
ltibia 57.8773
lfoot 24.7678 10.5781
ltoes 2.43006
139
root -10.3901 15.7986 6.94781 -174.842 52.8237 -171.711
lowerback 9.85947 -0.801281 3.38932
upperback -0.806851 -0.522128 1.57561
thorax -6.40752 -0.327646 -0.177229
lowerneck -12.0125 -7.52116 -12.3802
upperneck 30.2769 -8.4572 5.87378
head 12.9453 -4.0319 3.20412
rclavicle 1.90235e-014 2.48481e-016
rhumerus -36.3424 -5.686 -81.1784
rradius 26.5301
rwrist 12.6739
rhand -17.7122 13.9748
rfingers 7.12502
rthumb 8.54808 -15.8322
lclavicle 1.90235e-014 2.48481e-016
lhumerus -34.9715 12.9027 80.2341
lradius 23.0655
lwrist -6.76385
lhand -13.094 12.5922
lfingers 7.12502
lthumb 13.0026 42.167
rfemur -14.0518 4.1989 30.1929
rtibia 27.6067
rfoot -12.9289 -17.2657
rtoes 2.55858
lfemur -4.54629 -0.390466 -14.9697
ltibia 59.6761
lfoot 25.232 11.9035
ltoes 3.31359
140
root -10.301 15.7945 6.91123 -174.812 52.9108 -171.638
lowerback 9.95154 -0.696306 3.34523
upperback -0.797735 -0.383004 1.57879
thorax -6.44564 -0.258098 -0.169588
lowerneck -12.1207 -7.56039 -12.2349
upperneck 30.3781 -8.52545 5.8375
head 13.0073 -4.0461 3.15389
rclavicle 2.90319e-014 -2.10712e-014
rhumerus -36.0321 -5.37985 -81.3726
rradius 26.7553
rwrist 12.2705
rhand -17.695 14.0967
rfingers 7.12502
rthumb 8.56473 -15.7096
lclavicle 2.90319e-014 -2.10712e-014
lhumerus -34.7276 12.8175 80.3374
lradius 23.2725
lwrist -6.62399
lhand -13.0604 12.6165
lfingers 7.12502
lthumb 13.035 42.1892
rfemur -13.6167 4.18553 30.3669
rtibia 27.5992
rfoot -13.3082 -17.1435
rtoes 2.28374
lfemur -5.93448 -0.375907 -14.9242
ltibia 61.3702
lfoot 24.7624 13.2838
ltoes 5.33673
141
root -10.2135 15.7899 6.87271 -174.579 52.9709 -171.297
lowerback 10.0189 -0.624625 3.51438
upperback -0.781704 -0.258752 1.62423
thorax -6.46458 -0.201199 -0.235724
lowerneck -12.1099 -7.59084 -12.2584
upperneck 30.348 -8.58884 5.91152
head 13.0047 -4.06778 3.17619
rclavicle 8.27255e-014 2.41523e-014
rhumerus -35.6257 -4.95338 -81.6483
rradius 26.8812
rwrist 11.6632
rhand -17.2101 14.9061
rfingers 7.12502
rthumb 9.03266 -14.8805
lclavicle 8.27255e-014 2.41523e-014
lhumerus -34.5414 12.7537 80.4504
lradius 23.5226
lwrist -6.41453
lhand -13.1384 12.5801
lfingers 7.12502
lthumb 12.9598 42.1576
rfemur -13.1854 4.19352 30.709
rtibia 27.6379
rfoot -13.7545 -17.0424
rtoes 2.49568
lfemur -7.28381 -0.316457 -14.6735
ltibia 62.9575
lfoot 23.7026 14.0392
ltoes 7.81972
142
root -10.1284 15.7834 6.83621 -174.424 53.0161 -171.134
lowerback 10.0353 -0.577723 3.56627
upperback -0.795066 -0.186259 1.64951
thorax -6.48612 -0.167058 -0.249318
lowerneck -11.9103 -7.61332 -12.235
upperneck 30.1509 -8.63611 5.85925
head 12.8812 -4.09828 3.14495
rclavicle 1.19734e-013 3.06625e-014
rhumerus -35.2339 -4.49331 -81.8837
rradius 27.0049
rwrist 11.3062
rhand -16.9132 15.3094
rfingers 7.12502
rthumb 9.31911 -14.4646
lclavicle 1.19734e-013 3.06625e-014
lhumerus -34.37 12.5631 80.6286
lradius 23.805
lwrist -5.88983
lhand -13.1868 12.4308
lfingers 7.12502
lthumb 12.9131 42.0112
rfemur -12.8648 4.20557 30.947
rtibia 27.7228
rfoot -14.0965 -17.0376
rtoes 2.51985
lfemur -8.73036 -0.278196 -14.5784
ltibia 64.3308
lfoot 22.4592 13.6984
ltoes 7.47631
143
root -10.0418 15.7795 6.79823 -174.521 53.0968 -171.241
lowerback 10.0498 -0.526769 3.44992
upperback -0.77939 -0.135172 1.62344
thorax -6.47548 -0.138666 -0.219296
lowerneck -11.815 -7.63498 -12.2465
upperneck 30.0808 -8.66406 5.82303
head 12.8342 -4.11877 3.12909
rclavicle 8.91875e-014 3.47873e-016
rhumerus -34.8529 -4.06822 -82.0978
rradius 27.1543
rwrist 11.0242
rhand -16.8309 15.2754
rfingers 7.12502
rthumb 9.39851 -14.495
lclavicle 8.91875e-014 3.47873e-016
lhumerus -34.1556 12.1201 80.8898
lradius 24.1559
lwrist -5.02396
lhand -13.2338 12.4802
lfingers 7.12502
lthumb 12.8678 42.0636
rfemur -12.5204 4.15724 31.0067
rtibia 27.8315
rfoot -14.3599 -17.0573
rtoes 2.22398
lfemur -10.0891 -0.279071 -14.7407
ltibia 65.4724
lfoot 20.9101 12.5646
ltoes 5.02787
144
root -9.95429 15.7765 6.75974 -174.702 53.2635 -171.375
lowerback 10.1189 -0.447523 3.30042
upperback -0.739355 -0.051986 1.55607
thorax -6.4691 -0.0942973 -0.218838
lowerneck -11.8904 -7.66022 -12.1955
upperneck 30.2031 -8.71026 5.84924
head 12.9044 -4.12659 3.12398
rclavicle -9.40314e-014 7.25564e-015
rhumerus -34.4598 -3.79054 -82.3601
rradius 27.2425
rwrist 10.7674
rhand -16.9021 15.221
rfingers 7.12502
rthumb 9.32982 -14.5526
lclavicle -9.40314e-014 7.25564e-015
lhumerus -34.0156 11.5526 81.0987
lradius 24.5611
lwrist -4.17828
lhand -13.3029 12.4561
lfingers 7.12502
lthumb 12.8012 42.0436
rfemur -12.1073 4.12839 31.0316
rtibia 27.9453
rfoot -14.6223 -17.0219
rtoes 1.80035
lfemur -11.2751 -0.195164 -14.9167
ltibia 66.479
lfoot 18.5544 11.1742
ltoes 3.38394
145
root -9.86898 15.7704 6.7236 -174.72 53.3513 -171.356
lowerback 10.1954 -0.391071 3.22661
upperback -0.729063 0.0140321 1.5186
thorax -6.49941 -0.0607474 -0.226667
lowerneck -11.8673 -7.67247 -11.983
upperneck 30.2001 -8.76107 5.77662
head 12.886 -4.13362 3.05272
rclavicle 6.79067e-014 1.02374e-014
rhumerus -34.0601 -3.74539 -82.5552
rradius 27.2305
rwrist 10.7743
rhand -16.9773 15.2897
rfingers 7.12502
rthumb 9.25726 -14.4871
lclavicle 6.79067e-014 1.02374e-014
lhumerus -33.9281 11.1989 81.2119
lradius 24.9259
lwrist -3.73269
lhand -13.2696 12.4354
lfingers 7.12502
lthumb 12.8333 42.0209
rfemur -11.709 4.1118 31.1684
rtibia 28.0054
rfoot -15.0405 -16.9541
rtoes 1.92181
lfemur -12.5158 -0.105223 -14.9298
ltibia 67.424
lfoot 15.7401 9.95452
ltoes 2.34161
146
root -9.78583 15.7636 6.68344 -174.451 53.3784 -171.017
lowerback 10.2522 -0.326598 3.44615
upperback -0.7455 0.135365 1.5628
thorax -6.5461 -0.00791281 -0.322416
lowerneck -11.7678 -7.73203 -12.0639
upperneck 30.145 -8.85562 5.83666
head 12.8613 -4.17865 3.07587
rclavicle 8.97171e-014 -1.74931e-014
rhumerus -33.7023 -3.72804 -82.6234
rradius 27.2405
rwrist 10.8282
rhand -17.0528 15.2578
rfingers 7.12502
rthumb 9.18439 -14.5222
lclavicle 8.97171e-014 -1.74931e-014
lhumerus -33.7828 10.9948 81.3832
lradius 25.1887
lwrist -3.62959
lhand -13.1838 12.6573
lfingers 7.12502
lthumb 12.916 42.2376
rfemur -11.3359 4.03546 31.5157
rtibia 28.0247
rfoot -15.2595 -17.0147
rtoes 1.52483
lfemur -13.8224 -0.0732016 -14.7529
ltibia 68.2785
lfoot 12.9871 9.44354
ltoes 0.486236
147
root -9.70458 15.7577 6.64038 -174.151 53.4809 -170.663
lowerback 10.3165 -0.260476 3.73857
upperback -0.763716 0.266167 1.57334
thorax -6.59766 0.0459386 -0.496114
lowerneck -11.7657 -7.77959 -12.1789
upperneck 30.1804 -8.92276 5.92773
head 12.8958 -4.20903 3.12035
rclavicle 5.75544e-014 8.64713e-015
rhumerus -33.3546 -3.49692 -82.7964
rradius 27.3765
rwrist 10.7544
rhand -17.2118 14.964
rfingers 7.12502
rthumb 9.03093 -14.8227
lclavicle 5.75544e-014 8.64713e-015
lhumerus -33.6378 10.8399 81.4874
lradius 25.4482
lwrist -3.50113
lhand -13.1662 12.7353
lfingers 7.12502
lthumb 12.933 42.3145
rfemur -10.9819 3.93238 31.8325
rtibia 28.0514
rfoot -15.5726 -16.9249
rtoes 1.63359
lfemur -15.15 -0.013445 -14.6025
ltibia 68.9688
lfoot 10.376 9.60756
ltoes -2.933
148
root -9.62078 15.7523 6.602 -174.006 53.6506 -170.573
lowerback 10.3177 -0.186758 3.76694
upperback -0.791012 0.365608 1.54148
thorax -6.62333 0.0918596 -0.561129
lowerneck -11.7554 -7.78485 -12.2392
upperneck 30.212 -8.94057 6.01157
head 12.9172 -4.21247 3.16151
rclavicle 6.74377e-014 -1.71949e-014
rhumerus -32.9938 -3.40472 -82.9666
rradius 27.5408
rwrist 11.0008
rhand -17.2761 14.5982
rfingers 7.12502
rthumb 8.9689 -15.1911
lclavicle 6.74377e-014 -1.71949e-014
lhumerus -33.5766 10.5806 81.5795
lradius 25.788
lwrist -3.07461
lhand -13.1477 12.5884
lfingers 7.12502
lthumb 12.9508 42.1665
rfemur -10.717 3.97759 31.9836
rtibia 28.1229
rfoot -15.9406 -16.883
rtoes 1.71083
lfemur -16.4946 0.0731804 -14.6171
ltibia 69.4433
lfoot 8.08578 9.87655
ltoes -6.97869
149
root -9.53484 15.7442 6.5644 -173.984 53.8421 -170.588
lowerback 10.3075 -0.094473 3.69768
upperback -0.782053 0.473807 1.48897
thorax -6.60371 0.145958 -0.59451
lowerneck -11.7313 -7.78778 -12.1987
upperneck 30.1918 -8.97502 6.06739
head 12.9075 -4.21654 3.17154
rclavicle -5.14045e-015 -9.0447e-015
rhumerus -32.6271 -3.25038 -83.1734
rradius 27.7286
rwrist 11.0146
rhand -17.2293 14.43
rfingers 7.12502
rthumb 9.0141 -15.3574
lclavicle -5.14045e-015 -9.0447e-015
lhumerus -33.4908 10.1392 81.7265
lradius 26.1511
lwrist -2.50311
lhand -13.151 12.6189
lfingers 7.12502
lthumb 12.9476 42.1971
rfemur -10.4534 4.11127 32.0949
rtibia 28.2759
rfoot -16.3406 -16.9405
rtoes 1.91617
lfemur -17.6871 0.0573028 -14.7296
ltibia 69.7032
lfoot 5.97521 10.0719
ltoes -8.30899
